<svg width="38" height="38" viewBox="0 0 38 38" fill="none" xmlns="http://www.w3.org/2000/svg">
<path d="M6.40995 25.7882V35.4782M20.083 25.9592C19.691 25.0265 18.7876 24.4219 17.7771 24.4219H13.6248V21.3975C13.6248 20.2039 13.2793 19.3472 12.6022 18.848C11.521 18.0586 10.0286 18.5094 9.96986 18.5336C9.89752 18.5561 9.83422 18.601 9.78917 18.6619C9.74413 18.7228 9.71969 18.7964 9.71941 18.8722V22.1402C9.71941 23.2456 9.19604 24.1835 8.15622 24.9194C7.65745 25.2743 7.10608 25.5488 6.52222 25.7329C6.4822 25.7447 6.4443 25.7628 6.40995 25.7865C6.38735 25.6486 6.31633 25.5233 6.20964 25.433C6.10295 25.3428 5.96758 25.2936 5.82786 25.2942H2.31459C2.23732 25.294 2.16077 25.309 2.08932 25.3384C2.01787 25.3678 1.95292 25.411 1.8982 25.4656C1.84349 25.5201 1.80008 25.5849 1.77045 25.6563C1.74083 25.7277 1.72559 25.8042 1.72559 25.8815V35.1897C1.72559 35.5162 1.9864 35.777 2.31286 35.777H5.82613C6.05759 35.777 6.25968 35.6405 6.35468 35.4505C6.58815 35.7096 6.8735 35.9167 7.1922 36.0584C7.5109 36.2 7.85583 36.273 8.20459 36.2727H16.2088C17.9188 36.2727 19.007 35.3815 19.2039 33.8252L20.2385 27.2495C20.3024 26.7986 20.2489 26.3495 20.083 25.9592Z" stroke="#666666" stroke-linecap="round" stroke-linejoin="round"/>
<path d="M6.41016 25.3961V5.18182C6.41016 4.26561 6.77412 3.38694 7.42197 2.73908C8.06982 2.09123 8.9485 1.72727 9.8647 1.72727H31.4366C32.3528 1.72727 33.2315 2.09123 33.8793 2.73908C34.5272 3.38694 34.8912 4.26561 34.8912 5.18182V15.8805M34.8912 22.1402V32.8182C34.8912 33.7344 34.5272 34.6131 33.8793 35.2609C33.2315 35.9088 32.3528 36.2727 31.4366 36.2727H13.9048" stroke="#666666" stroke-linecap="round" stroke-linejoin="round"/>
<path d="M11.5625 1.9V18.2953M23.8313 1.72727H29.7058V12.1168L26.7694 10.3101L23.833 12.1168L23.8313 1.72727ZM32.4694 15.8909H34.5456C35.0037 15.8909 35.443 16.0729 35.767 16.3968C36.0909 16.7207 36.2729 17.1601 36.2729 17.6182V20.3818C36.2729 20.8399 36.0909 21.2793 35.767 21.6032C35.443 21.9271 35.0037 22.1091 34.5456 22.1091H32.4694C31.6448 22.1091 30.854 21.7815 30.2709 21.1985C29.6879 20.6154 29.3603 19.8246 29.3603 19C29.3603 18.1754 29.6879 17.3846 30.2709 16.8015C30.854 16.2185 31.6448 15.8909 32.4694 15.8909Z" stroke="#666666" stroke-linecap="round" stroke-linejoin="round"/>
</svg>
