<svg width="358" height="43" viewBox="0 0 358 43" fill="none" xmlns="http://www.w3.org/2000/svg">
<rect width="358" height="43" rx="12" fill="#56AD01"/>
<path d="M142.6 27.984C143.453 27.984 144.109 27.7813 144.568 27.376C145.037 26.9813 145.272 26.3627 145.272 25.52L145.256 18.24L146.984 18V25.584C146.984 26.928 146.632 27.904 145.928 28.512C145.235 29.1307 144.173 29.44 142.744 29.44L142.6 27.984ZM152.786 26C150.439 26 149.266 24.912 149.266 22.736L149.25 14.56L150.994 14.32V22.224C150.994 22.8853 151.138 23.376 151.426 23.696C151.714 24.0053 152.162 24.16 152.77 24.16C152.876 24.16 152.93 24.208 152.93 24.304L152.946 25.84C152.946 25.9467 152.892 26 152.786 26ZM158.157 24.16C158.264 24.16 158.317 24.208 158.317 24.304V25.84C158.317 25.9467 158.264 26 158.157 26C157.24 26 156.403 25.6533 155.645 24.96C155.048 25.6533 154.093 26 152.781 26C152.675 26 152.621 25.9467 152.621 25.84L152.637 24.304C152.637 24.208 152.691 24.16 152.797 24.16C153.992 24.16 154.589 23.536 154.589 22.288L154.573 19.92L156.317 19.68V22.832C156.317 23.1093 156.296 23.3547 156.253 23.568C156.84 23.9627 157.475 24.16 158.157 24.16ZM153.965 28.464L155.373 27.056L156.813 28.464L155.405 29.856L153.965 28.464ZM164.236 24.16C164.343 24.16 164.396 24.208 164.396 24.304V25.84C164.396 25.9467 164.343 26 164.236 26C163.778 26 163.314 25.8987 162.844 25.696C162.386 25.4933 161.959 25.2 161.564 24.816C160.935 25.6053 159.799 26 158.156 26C158.05 26 157.996 25.9467 157.996 25.84L158.012 24.304C158.012 24.208 158.066 24.16 158.172 24.16C158.951 24.16 159.522 24.016 159.884 23.728C160.258 23.4293 160.444 22.9493 160.444 22.288V19.92L162.172 19.68V22.832C162.172 23.0453 162.156 23.2587 162.124 23.472C162.775 23.9307 163.479 24.16 164.236 24.16ZM162.556 18.72L161.228 17.424L159.932 18.72L158.508 17.312L159.916 15.92L161.228 17.2L162.54 15.92L163.964 17.312L162.556 18.72ZM167.066 18.272C167.546 18.272 168.021 18.3627 168.49 18.544C168.97 18.7253 169.568 19.0613 170.282 19.552C170.997 20.032 171.984 20.768 173.242 21.76L172.938 23.504C171.296 24.3893 169.808 25.0293 168.474 25.424C167.152 25.808 165.744 26 164.25 26C164.133 26 164.074 25.9467 164.074 25.84V24.304C164.074 24.208 164.133 24.16 164.25 24.16C165.605 24.16 166.853 24.032 167.994 23.776C169.136 23.52 170.293 23.1253 171.466 22.592C170.581 21.8987 169.872 21.376 169.338 21.024C168.805 20.6613 168.346 20.4107 167.962 20.272C167.589 20.1333 167.21 20.064 166.826 20.064C166.602 20.064 166.362 20.0907 166.106 20.144C165.85 20.1867 165.573 20.24 165.274 20.304L164.938 18.752C165.77 18.432 166.48 18.272 167.066 18.272ZM167.882 15.968L169.29 14.576L170.73 15.968L169.322 17.376L167.882 15.968ZM182.921 14.32V22.736C182.921 24.912 181.742 26 179.385 26H174.185L173.881 24.16H177.321L175.849 16.848L177.561 16.416L178.937 24.16H179.385H179.401C180.009 24.16 180.457 24.0053 180.745 23.696C181.033 23.376 181.177 22.8853 181.177 22.224L181.193 14.56L182.921 14.32ZM180.377 29.056L180.137 30.176H176.457V29.056H177.273C177.123 28.8 177.049 28.5067 177.049 28.176C177.049 27.7707 177.187 27.4347 177.465 27.168C177.753 26.9013 178.11 26.768 178.537 26.768C178.921 26.768 179.358 26.8693 179.849 27.072V28C179.433 27.84 179.091 27.76 178.825 27.76C178.601 27.76 178.419 27.8187 178.281 27.936C178.153 28.0533 178.089 28.2027 178.089 28.384C178.089 28.64 178.169 28.864 178.329 29.056H180.377ZM185.514 14.56L187.258 14.32V26H185.514V14.56ZM199.948 24.16L199.484 26H192.588V24.16H194.348C194.102 23.7547 193.921 23.376 193.804 23.024C193.697 22.672 193.644 22.3093 193.644 21.936C193.644 21.4027 193.777 20.9227 194.044 20.496C194.31 20.0587 194.673 19.7173 195.132 19.472C195.59 19.2267 196.097 19.104 196.652 19.104C197.057 19.104 197.462 19.152 197.868 19.248C198.273 19.344 198.769 19.504 199.356 19.728L198.876 21.2C198.417 21.04 198.049 20.928 197.772 20.864C197.505 20.8 197.228 20.768 196.94 20.768C196.374 20.768 195.937 20.9227 195.628 21.232C195.318 21.5413 195.164 21.968 195.164 22.512C195.164 22.9813 195.356 23.5307 195.74 24.16H199.948ZM209.833 24.16C209.939 24.16 209.993 24.208 209.993 24.304V25.84C209.993 25.9467 209.939 26 209.833 26C208.915 26 208.083 25.6533 207.337 24.96C206.761 25.6533 205.806 26 204.473 26H200.777L200.473 24.16H204.489C205.065 24.16 205.507 24.016 205.817 23.728C206.126 23.44 206.281 23.04 206.281 22.528L206.265 21.728C206.254 21.152 206.046 20.688 205.641 20.336C205.235 19.9733 204.713 19.792 204.073 19.792H203.081V18H204.457C205.139 18 205.747 18.144 206.281 18.432C206.825 18.72 207.246 19.1307 207.545 19.664C207.854 20.1973 208.009 20.8213 208.009 21.536L208.025 22.832C208.025 23.12 208.003 23.3707 207.961 23.584C208.547 23.968 209.171 24.16 209.833 24.16ZM209.828 26C209.721 26 209.668 25.9467 209.668 25.84L209.684 24.304C209.684 24.208 209.737 24.16 209.844 24.16C211.039 24.16 211.636 23.536 211.636 22.288L211.62 18.24L213.364 18V22.832C213.364 23.856 213.065 24.64 212.468 25.184C211.881 25.728 211.001 26 209.828 26ZM210.196 28.448L211.604 27.04L213.044 28.448L211.636 29.84L210.196 28.448Z" fill="white"/>
</svg>
