<svg width="48" height="48" viewBox="0 0 48 48" fill="none" xmlns="http://www.w3.org/2000/svg">
<rect width="48" height="48" rx="12" fill="#F1F5F7"/>
<path d="M10.6665 37.3335H37.3332" stroke="#292D32" stroke-width="1.5" stroke-miterlimit="10" stroke-linecap="round" stroke-linejoin="round"/>
<path d="M21 13.3332V37.3332H27V13.3332C27 11.8665 26.4 10.6665 24.6 10.6665H23.4C21.6 10.6665 21 11.8665 21 13.3332Z" stroke="#292D32" stroke-width="1.5" stroke-linecap="round" stroke-linejoin="round"/>
<path d="M12 21.3332V37.3332H17.3333V21.3332C17.3333 19.8665 16.8 18.6665 15.2 18.6665H14.1333C12.5333 18.6665 12 19.8665 12 21.3332Z" stroke="#292D32" stroke-width="1.5" stroke-linecap="round" stroke-linejoin="round"/>
<path d="M30.6665 28.0002V37.3335H35.9998V28.0002C35.9998 26.5335 35.4665 25.3335 33.8665 25.3335H32.7998C31.1998 25.3335 30.6665 26.5335 30.6665 28.0002Z" stroke="#292D32" stroke-width="1.5" stroke-linecap="round" stroke-linejoin="round"/>
</svg>
