<svg width="48" height="48" viewBox="0 0 48 48" fill="none" xmlns="http://www.w3.org/2000/svg">
<rect width="48" height="48" rx="12" fill="#F1F5F7"/>
<path d="M23.7387 32.812C22.6427 32.812 21.6507 32.548 20.7627 32.02C19.8827 31.484 19.1827 30.776 18.6627 29.896C18.1507 29.008 17.8947 28.04 17.8947 26.992H21.2067C21.2067 27.456 21.3187 27.88 21.5427 28.264C21.7747 28.64 22.0827 28.94 22.4667 29.164C22.8507 29.388 23.2747 29.5 23.7387 29.5C24.1947 29.5 24.6107 29.388 24.9867 29.164C25.3707 28.94 25.6747 28.64 25.8987 28.264C26.1307 27.88 26.2467 27.456 26.2467 26.992C26.2467 26.528 26.1507 26.1 25.9587 25.708C25.7747 25.316 25.4547 25.004 24.9987 24.772C24.5427 24.532 23.9147 24.412 23.1147 24.412H18.7227L20.5587 15.7H28.9347V19.012H23.2467L22.8147 21.1L23.7507 21.124C24.8947 21.164 25.8987 21.448 26.7627 21.976C27.6347 22.504 28.3187 23.204 28.8147 24.076C29.3107 24.948 29.5587 25.92 29.5587 26.992C29.5587 27.784 29.4067 28.532 29.1027 29.236C28.8067 29.94 28.3907 30.56 27.8547 31.096C27.3267 31.632 26.7107 32.052 26.0067 32.356C25.3027 32.66 24.5467 32.812 23.7387 32.812Z" fill="#17181A"/>
</svg>
