<svg width="48" height="48" viewBox="0 0 48 48" fill="none" xmlns="http://www.w3.org/2000/svg">
<rect width="48" height="48" rx="12" fill="#F1F5F7"/>
<path d="M24.2821 32.812C23.2741 32.812 22.3541 32.568 21.5221 32.08C20.6901 31.592 20.0261 30.936 19.5301 30.112C19.0421 29.28 18.7981 28.36 18.7981 27.352H22.1101C22.1101 27.736 22.2061 28.092 22.3981 28.42C22.5901 28.748 22.8501 29.012 23.1781 29.212C23.5061 29.404 23.8741 29.5 24.2821 29.5C24.6741 29.5 25.0341 29.404 25.3621 29.212C25.6981 29.012 25.9661 28.748 26.1661 28.42C26.3661 28.092 26.4661 27.736 26.4661 27.352C26.4661 26.824 26.3221 26.384 26.0341 26.032C25.7461 25.68 25.3421 25.416 24.8221 25.24C24.3021 25.064 23.6941 24.976 22.9981 24.976V22.444C23.9261 22.444 24.6581 22.28 25.1941 21.952C25.7301 21.616 25.9981 21.12 25.9981 20.464C25.9981 20.136 25.9181 19.84 25.7581 19.576C25.5981 19.304 25.3821 19.088 25.1101 18.928C24.8381 18.76 24.5381 18.676 24.2101 18.676C23.8821 18.676 23.5581 18.76 23.2381 18.928C22.9181 19.088 22.6541 19.304 22.4461 19.576C22.2461 19.84 22.1461 20.136 22.1461 20.464H18.8341C18.8341 19.76 18.9781 19.1 19.2661 18.484C19.5541 17.868 19.9461 17.328 20.4421 16.864C20.9461 16.392 21.5181 16.024 22.1581 15.76C22.7981 15.496 23.4701 15.364 24.1741 15.364C25.0941 15.364 25.9421 15.592 26.7181 16.048C27.5021 16.504 28.1301 17.12 28.6021 17.896C29.0741 18.664 29.3101 19.52 29.3101 20.464C29.3101 21.064 29.1741 21.668 28.9021 22.276C28.6381 22.884 28.2501 23.32 27.7381 23.584C28.1861 23.752 28.5581 24.04 28.8541 24.448C29.1581 24.848 29.3861 25.308 29.5381 25.828C29.6981 26.34 29.7781 26.848 29.7781 27.352C29.7781 28.352 29.5301 29.268 29.0341 30.1C28.5381 30.924 27.8741 31.584 27.0421 32.08C26.2101 32.568 25.2901 32.812 24.2821 32.812Z" fill="#17181A"/>
</svg>
