<svg width="48" height="48" viewBox="0 0 48 48" fill="none" xmlns="http://www.w3.org/2000/svg">
<rect width="48" height="48" rx="12" fill="#F1F5F7"/>
<path d="M18.0381 32.5V29.548C18.5181 29.212 19.1021 28.78 19.7901 28.252C20.4781 27.716 21.1941 27.128 21.9381 26.488C22.6821 25.84 23.3741 25.184 24.0141 24.52C24.6621 23.856 25.1861 23.228 25.5861 22.636C25.9941 22.044 26.1981 21.536 26.1981 21.112C26.1981 20.672 26.0901 20.268 25.8741 19.9C25.6581 19.532 25.3701 19.24 25.0101 19.024C24.6501 18.808 24.2501 18.7 23.8101 18.7C23.3701 18.7 22.9661 18.808 22.5981 19.024C22.2381 19.24 21.9461 19.532 21.7221 19.9C21.5061 20.268 21.3981 20.672 21.3981 21.112H18.0861C18.0861 20.032 18.3461 19.06 18.8661 18.196C19.3941 17.332 20.0901 16.648 20.9541 16.144C21.8261 15.64 22.7781 15.388 23.8101 15.388C24.8581 15.388 25.8141 15.644 26.6781 16.156C27.5421 16.668 28.2301 17.36 28.7421 18.232C29.2541 19.096 29.5101 20.056 29.5101 21.112C29.5101 21.656 29.4261 22.184 29.2581 22.696C29.0981 23.208 28.8621 23.72 28.5501 24.232C28.2381 24.736 27.8581 25.252 27.4101 25.78C26.9701 26.3 26.4701 26.844 25.9101 27.412C25.3581 27.972 24.7621 28.564 24.1221 29.188H29.5581V32.5H18.0381Z" fill="#17181A"/>
</svg>
