<svg width="29" height="29" viewBox="0 0 29 29" fill="none" xmlns="http://www.w3.org/2000/svg">
<path d="M14.5 2.4165C7.84204 2.4165 2.41663 7.84192 2.41663 14.4998C2.41663 21.1578 7.84204 26.5832 14.5 26.5832C21.1579 26.5832 26.5833 21.1578 26.5833 14.4998C26.5833 7.84192 21.1579 2.4165 14.5 2.4165ZM19.7562 18.8136C19.587 19.1036 19.285 19.2607 18.9708 19.2607C18.8137 19.2607 18.6566 19.2244 18.5116 19.1278L14.7658 16.8923C13.8354 16.3365 13.1466 15.1161 13.1466 14.0407V9.0865C13.1466 8.59109 13.5575 8.18025 14.0529 8.18025C14.5483 8.18025 14.9591 8.59109 14.9591 9.0865V14.0407C14.9591 14.4757 15.3216 15.1161 15.6962 15.3336L19.442 17.569C19.877 17.8228 20.022 18.3786 19.7562 18.8136Z" fill="#56AD01"/>
</svg>
