<svg width="34" height="38" viewBox="0 0 34 38" fill="none" xmlns="http://www.w3.org/2000/svg">
<g clip-path="url(#clip0_1_5227)">
<path d="M32.331 12.154C32.331 10.794 31.606 9.53602 30.427 8.85602L18.57 2.01002C17.9911 1.6759 17.3344 1.5 16.666 1.5C15.9976 1.5 15.3409 1.6759 14.762 2.01002L2.904 8.85602C2.32502 9.19018 1.84423 9.6709 1.51 10.2498C1.17576 10.8288 0.999868 11.4855 1 12.154V25.846C1 27.206 1.726 28.464 2.904 29.144L14.761 35.99C15.94 36.67 17.391 36.67 18.569 35.99L30.427 29.144C31.0059 28.8098 31.4866 28.329 31.8209 27.7501C32.1551 27.1712 32.331 26.5145 32.331 25.846V12.154Z" fill="#E5E5E5" stroke="black" stroke-width="1.5" stroke-linecap="round" stroke-linejoin="round"/>
<mask id="mask0_1_5227" style="mask-type:luminance" maskUnits="userSpaceOnUse" x="1" y="1" width="32" height="36">
<path d="M32.331 12.154C32.331 10.794 31.606 9.53602 30.427 8.85602L18.57 2.01002C17.9911 1.6759 17.3344 1.5 16.666 1.5C15.9976 1.5 15.3409 1.6759 14.762 2.01002L2.904 8.85602C2.32502 9.19018 1.84423 9.6709 1.51 10.2498C1.17576 10.8288 0.999868 11.4855 1 12.154V25.846C1 27.206 1.726 28.464 2.904 29.144L14.761 35.99C15.94 36.67 17.391 36.67 18.569 35.99L30.427 29.144C31.0059 28.8098 31.4866 28.329 31.8209 27.7501C32.1551 27.1712 32.331 26.5145 32.331 25.846V12.154Z" fill="white"/>
</mask>
<g mask="url(#mask0_1_5227)">
<path d="M16.664 30.298C22.8993 30.298 27.954 25.2433 27.954 19.008C27.954 12.7727 22.8993 7.71802 16.664 7.71802C10.4287 7.71802 5.37402 12.7727 5.37402 19.008C5.37402 25.2433 10.4287 30.298 16.664 30.298Z" fill="#CDFF9D" stroke="black" stroke-width="1.5" stroke-linecap="round" stroke-linejoin="round"/>
<path fill-rule="evenodd" clip-rule="evenodd" d="M17.34 12.7211L18.71 15.5031C18.828 15.7431 19.056 15.9081 19.32 15.9461L22.384 16.3921C22.5336 16.4139 22.6741 16.4771 22.7896 16.5746C22.9051 16.6721 22.991 16.8 23.0376 16.9438C23.0842 17.0876 23.0897 17.2416 23.0533 17.3883C23.017 17.535 22.9403 17.6686 22.832 17.7741L20.615 19.9401C20.521 20.0318 20.4507 20.145 20.4101 20.2698C20.3695 20.3947 20.3599 20.5276 20.382 20.6571L20.905 23.7151C20.9307 23.8638 20.9142 24.0168 20.8575 24.1567C20.8007 24.2966 20.706 24.4178 20.584 24.5067C20.4619 24.5955 20.3174 24.6485 20.1669 24.6595C20.0163 24.6705 19.8657 24.6392 19.732 24.5691L16.992 23.1251C16.876 23.0639 16.7467 23.0319 16.6155 23.0319C16.4843 23.0319 16.3551 23.0639 16.239 23.1251L13.499 24.5691C13.3653 24.6395 13.2145 24.671 13.0638 24.6601C12.9131 24.6492 12.7684 24.5963 12.6462 24.5074C12.524 24.4185 12.4292 24.2972 12.3724 24.1572C12.3156 24.0171 12.2992 23.864 12.325 23.7151L12.849 20.6571C12.8711 20.5276 12.8615 20.3947 12.8209 20.2698C12.7803 20.145 12.71 20.0318 12.616 19.9401L10.399 17.7741C10.2907 17.6686 10.214 17.535 10.1777 17.3883C10.1413 17.2416 10.1468 17.0876 10.1934 16.9438C10.24 16.8 10.3259 16.6721 10.4414 16.5746C10.5569 16.4771 10.6974 16.4139 10.847 16.3921L13.911 15.9461C14.0408 15.9271 14.1641 15.8769 14.2702 15.7998C14.3763 15.7226 14.462 15.6208 14.52 15.5031L15.89 12.7211C15.9566 12.5856 16.0599 12.4716 16.188 12.3918C16.3162 12.3121 16.4641 12.2698 16.615 12.2698C16.7659 12.2698 16.9139 12.3121 17.042 12.3918C17.1701 12.4716 17.2734 12.5856 17.34 12.7211Z" fill="#56AD01" stroke="black" stroke-width="1.5" stroke-linecap="round" stroke-linejoin="round"/>
</g>
</g>
<defs>
<clipPath id="clip0_1_5227">
<rect width="34" height="37" fill="white" transform="translate(0 0.5)"/>
</clipPath>
</defs>
</svg>
