<svg width="38" height="38" viewBox="0 0 38 38" fill="none" xmlns="http://www.w3.org/2000/svg">
<path d="M13.0113 1.72726H5.1816C3.2737 1.72726 1.72705 3.27392 1.72705 5.18181V7.94545C1.72705 9.85334 3.2737 11.4 5.1816 11.4H13.0113C14.9192 11.4 16.4659 9.85334 16.4659 7.94545V5.18181C16.4659 3.27392 14.9192 1.72726 13.0113 1.72726Z" stroke="#666666" stroke-linecap="round" stroke-linejoin="round"/>
<path d="M32.818 26.6H24.9882C23.0803 26.6 21.5337 28.1466 21.5337 30.0545V32.8182C21.5337 34.7261 23.0803 36.2727 24.9882 36.2727H32.818C34.7259 36.2727 36.2725 34.7261 36.2725 32.8182V30.0545C36.2725 28.1466 34.7259 26.6 32.818 26.6Z" stroke="#666666" stroke-linecap="round" stroke-linejoin="round"/>
<path d="M32.818 1.72726H24.9882C23.0803 1.72726 21.5337 3.27392 21.5337 5.18181V18.5388C21.5337 20.4467 23.0803 21.9934 24.9882 21.9934H32.818C34.7259 21.9934 36.2725 20.4467 36.2725 18.5388V5.18181C36.2725 3.27392 34.7259 1.72726 32.818 1.72726Z" fill="#56AD01" stroke="#666666" stroke-linecap="round" stroke-linejoin="round"/>
<path d="M13.0113 16.0066H5.1816C3.2737 16.0066 1.72705 17.5533 1.72705 19.4612V32.8182C1.72705 34.7261 3.2737 36.2727 5.1816 36.2727H13.0113C14.9192 36.2727 16.4659 34.7261 16.4659 32.8182V19.4612C16.4659 17.5533 14.9192 16.0066 13.0113 16.0066Z" fill="#D9D9D9" stroke="#666666" stroke-linecap="round" stroke-linejoin="round"/>
</svg>
