<svg width="38" height="38" viewBox="0 0 38 38" fill="none" xmlns="http://www.w3.org/2000/svg">
<path d="M15.5452 1.72729H5.1816C3.2737 1.72729 1.72705 3.27395 1.72705 5.18184V32.8182C1.72705 34.7261 3.2737 36.2727 5.1816 36.2727H15.5452C17.4531 36.2727 18.9998 34.7261 18.9998 32.8182V5.18184C18.9998 3.27395 17.4531 1.72729 15.5452 1.72729Z" fill="#FCE5E5" stroke="black" stroke-linecap="round" stroke-linejoin="round"/>
<path fill-rule="evenodd" clip-rule="evenodd" d="M35.8978 18.3385L27.9679 10.2773C27.2424 9.62092 26.0851 10.1512 26.0851 11.1409V13.4451C26.087 13.7476 25.969 14.0386 25.7571 14.2545C25.5451 14.4703 25.2563 14.5936 24.9538 14.5972H12.4915C11.2461 14.5972 10.2271 15.6336 10.2271 16.9014V21.508C10.2271 22.7758 11.2461 23.8122 12.4915 23.8122H24.9538C25.5756 23.8122 26.0869 24.3304 26.0869 24.9643V27.2685C26.0869 28.2582 27.2424 28.7885 27.9679 28.1321L35.8978 20.0692C36.3642 19.5959 36.4315 18.8135 35.8978 18.3419V18.3385Z" fill="#56AD01" stroke="black" stroke-linecap="round" stroke-linejoin="round"/>
</svg>
