<svg width="56" height="56" viewBox="0 0 56 56" fill="none" xmlns="http://www.w3.org/2000/svg">
<path d="M44.3328 21.0013C44.3328 24.3846 43.3295 27.488 41.6028 30.078C40.3375 31.965 38.6917 33.5667 36.771 34.7803C34.8502 35.9938 32.697 36.7923 30.4495 37.1246C29.6561 37.2646 28.8395 37.3346 27.9995 37.3346C27.1595 37.3346 26.3428 37.2646 25.5495 37.1246C23.3019 36.7923 21.1487 35.9938 19.2279 34.7803C17.3072 33.5667 15.6614 31.965 14.3961 30.078C12.6048 27.3907 11.6544 24.2308 11.6661 21.0013C11.6661 11.9713 18.9695 4.66797 27.9995 4.66797C37.0295 4.66797 44.3328 11.9713 44.3328 21.0013Z" stroke="#56AD01" stroke-width="3.5" stroke-linecap="round" stroke-linejoin="round"/>
<path d="M49.5836 43.0973L45.7336 44.0073C44.8702 44.2173 44.1936 44.8707 44.0069 45.734L43.1902 49.164C43.09 49.585 42.8747 49.9699 42.5684 50.2756C42.262 50.5813 41.8767 50.7958 41.4554 50.895C41.0341 50.9943 40.5936 50.9744 40.183 50.8377C39.7723 50.7009 39.4078 50.4527 39.1302 50.1206L28.0002 37.334L16.8702 50.144C16.5926 50.476 16.2281 50.7243 15.8175 50.861C15.4069 50.9978 14.9663 51.0176 14.545 50.9184C14.1238 50.8191 13.7384 50.6046 13.4321 50.2989C13.1257 49.9932 12.9104 49.6084 12.8102 49.1873L11.9935 45.7573C11.8943 45.3376 11.6802 44.9539 11.3753 44.6489C11.0703 44.344 10.6865 44.1299 10.2669 44.0307L6.41688 43.1206C6.01351 43.024 5.64308 42.8218 5.34353 42.5349C5.04398 42.2479 4.82607 41.8866 4.71212 41.4877C4.59816 41.0889 4.59226 40.6669 4.69501 40.2651C4.79776 39.8632 5.00547 39.4958 5.29688 39.2006L14.3969 30.1006C15.6621 31.9877 17.3079 33.5894 19.2287 34.8029C21.1494 36.0165 23.3027 36.815 25.5502 37.1473C26.3435 37.2873 27.1602 37.3573 28.0002 37.3573C28.8402 37.3573 29.6569 37.2873 30.4502 37.1473C35.0936 36.4707 39.0836 33.834 41.6036 30.1006L50.7036 39.2006C51.9869 40.4606 51.3569 42.6773 49.5836 43.0973ZM29.3535 13.954L30.7302 16.7073C30.9169 17.0807 31.4069 17.454 31.8502 17.524L34.3469 17.944C35.9336 18.2007 36.3069 19.3673 35.1635 20.5107L33.2269 22.4473C32.9002 22.774 32.7135 23.404 32.8302 23.8706L33.3902 26.274C33.8336 28.164 32.8302 28.9107 31.1502 27.9073L28.8169 26.5307C28.5799 26.4042 28.3155 26.3381 28.0469 26.3381C27.7783 26.3381 27.5138 26.4042 27.2769 26.5307L24.9435 27.9073C23.2635 28.8873 22.2602 28.164 22.7035 26.274L23.2635 23.8706C23.3569 23.4273 23.1935 22.774 22.8669 22.4473L20.9302 20.5107C19.7869 19.3673 20.1602 18.224 21.7469 17.944L24.2435 17.524C24.6635 17.454 25.1535 17.0807 25.3402 16.7073L26.7169 13.954C27.3935 12.4607 28.6069 12.4607 29.3535 13.954Z" stroke="#56AD01" stroke-width="3.5" stroke-linecap="round" stroke-linejoin="round"/>
</svg>
