<svg width="34" height="37" viewBox="0 0 34 37" fill="none" xmlns="http://www.w3.org/2000/svg">
<g clip-path="url(#clip0_1_5125)">
<path d="M32.331 11.654C32.331 10.294 31.606 9.03602 30.427 8.35602L18.57 1.51002C17.9911 1.1759 17.3344 1 16.666 1C15.9976 1 15.3409 1.1759 14.762 1.51002L2.904 8.35602C2.32502 8.69018 1.84423 9.1709 1.51 9.74984C1.17576 10.3288 0.999868 10.9855 1 11.654V25.346C1 26.706 1.726 27.964 2.904 28.644L14.761 35.49C15.94 36.17 17.391 36.17 18.569 35.49L30.427 28.644C31.0059 28.3098 31.4866 27.829 31.8209 27.2501C32.1551 26.6712 32.331 26.0145 32.331 25.346V11.654Z" fill="#E5E5E5" stroke="black" stroke-width="1.5" stroke-linecap="round" stroke-linejoin="round"/>
<mask id="mask0_1_5125" style="mask-type:luminance" maskUnits="userSpaceOnUse" x="1" y="1" width="32" height="35">
<path d="M32.331 11.654C32.331 10.294 31.606 9.03602 30.427 8.35602L18.57 1.51002C17.9911 1.1759 17.3344 1 16.666 1C15.9976 1 15.3409 1.1759 14.762 1.51002L2.904 8.35602C2.32502 8.69018 1.84423 9.1709 1.51 9.74984C1.17576 10.3288 0.999868 10.9855 1 11.654V25.346C1 26.706 1.726 27.964 2.904 28.644L14.761 35.49C15.94 36.17 17.391 36.17 18.569 35.49L30.427 28.644C31.0059 28.3098 31.4866 27.829 31.8209 27.2501C32.1551 26.6712 32.331 26.0145 32.331 25.346V11.654Z" fill="white"/>
</mask>
<g mask="url(#mask0_1_5125)">
<path d="M16.664 29.798C22.8993 29.798 27.954 24.7433 27.954 18.508C27.954 12.2727 22.8993 7.21802 16.664 7.21802C10.4287 7.21802 5.374 12.2727 5.374 18.508C5.374 24.7433 10.4287 29.798 16.664 29.798Z" fill="#CDFF9D" stroke="black" stroke-width="1.5" stroke-linecap="round" stroke-linejoin="round"/>
<path fill-rule="evenodd" clip-rule="evenodd" d="M17.34 12.2211L18.71 15.0031C18.828 15.2431 19.056 15.4081 19.32 15.4461L22.384 15.8921C22.5336 15.9139 22.6741 15.9771 22.7896 16.0746C22.9051 16.1721 22.991 16.3 23.0376 16.4438C23.0842 16.5876 23.0897 16.7416 23.0533 16.8883C23.017 17.035 22.9403 17.1686 22.832 17.2741L20.615 19.4401C20.521 19.5318 20.4507 19.645 20.4101 19.7698C20.3695 19.8947 20.3599 20.0276 20.382 20.1571L20.905 23.2151C20.9307 23.3638 20.9142 23.5168 20.8575 23.6567C20.8007 23.7966 20.706 23.9178 20.5839 24.0067C20.4619 24.0955 20.3174 24.1485 20.1669 24.1595C20.0163 24.1705 19.8657 24.1392 19.732 24.0691L16.992 22.6251C16.8759 22.5639 16.7467 22.5319 16.6155 22.5319C16.4843 22.5319 16.3551 22.5639 16.239 22.6251L13.499 24.0691C13.3653 24.1395 13.2145 24.171 13.0638 24.1601C12.9131 24.1492 12.7684 24.0963 12.6462 24.0074C12.524 23.9185 12.4292 23.7972 12.3724 23.6572C12.3156 23.5171 12.2992 23.364 12.325 23.2151L12.849 20.1571C12.8711 20.0276 12.8615 19.8947 12.8209 19.7698C12.7803 19.645 12.71 19.5318 12.616 19.4401L10.399 17.2741C10.2907 17.1686 10.214 17.035 10.1777 16.8883C10.1413 16.7416 10.1468 16.5876 10.1934 16.4438C10.24 16.3 10.3259 16.1721 10.4414 16.0746C10.5569 15.9771 10.6974 15.9139 10.847 15.8921L13.911 15.4461C14.0408 15.4271 14.1641 15.3769 14.2702 15.2998C14.3763 15.2226 14.462 15.1208 14.52 15.0031L15.89 12.2211C15.9566 12.0856 16.0599 11.9716 16.188 11.8918C16.3161 11.8121 16.4641 11.7698 16.615 11.7698C16.7659 11.7698 16.9139 11.8121 17.042 11.8918C17.1701 11.9716 17.2734 12.0856 17.34 12.2211Z" fill="#56AD01" stroke="black" stroke-width="1.5" stroke-linecap="round" stroke-linejoin="round"/>
</g>
</g>
<defs>
<clipPath id="clip0_1_5125">
<rect width="34" height="37" fill="white"/>
</clipPath>
</defs>
</svg>
