<svg width="30" height="33" viewBox="0 0 30 33" fill="none" xmlns="http://www.w3.org/2000/svg">
<path fill-rule="evenodd" clip-rule="evenodd" d="M26.5051 22.5723H3.44206C4.49906 22.5723 5.09606 22.0193 5.43506 21.1023C7.07606 16.6773 2.70606 3.78027 14.9741 3.78027C27.2411 3.78027 22.8701 16.6773 24.5111 21.1033C24.8511 22.0193 25.4491 22.5723 26.5051 22.5723Z" stroke="#616161" stroke-width="1.5" stroke-linecap="round" stroke-linejoin="round"/>
<path d="M9.25406 10.9673C9.83806 8.73826 11.3141 6.96726 15.0751 6.96726M17.2431 3.95126C17.2677 3.63817 17.2272 3.32337 17.1243 3.02666C17.0214 2.72995 16.8582 2.45774 16.645 2.22713C16.4318 1.99652 16.1732 1.81251 15.8855 1.68666C15.5978 1.56082 15.2871 1.49585 14.9731 1.49585C14.659 1.49585 14.3483 1.56082 14.0606 1.68666C13.7729 1.81251 13.5143 1.99652 13.3011 2.22713C13.0879 2.45774 12.9247 2.72995 12.8218 3.02666C12.7189 3.32337 12.6785 3.63817 12.7031 3.95126M28.7381 24.8043C28.7381 26.0383 27.7381 27.0383 26.5051 27.0383H3.44206C2.82506 27.0383 2.26706 26.7883 1.86206 26.3843C1.54976 26.072 1.33708 25.6741 1.25091 25.2409C1.16475 24.8077 1.20897 24.3588 1.37798 23.9507C1.547 23.5427 1.83322 23.1939 2.20044 22.9486C2.56767 22.7032 2.99941 22.5722 3.44106 22.5723H26.5051C27.1211 22.5723 27.6801 22.8223 28.0841 23.2263C28.4881 23.6303 28.7381 24.1883 28.7381 24.8053V24.8043ZM19.4391 27.0383C19.4385 28.2224 18.968 29.3579 18.1308 30.1953C17.2936 31.0327 16.1582 31.5035 14.9741 31.5043C12.5071 31.5043 10.5071 29.5043 10.5071 27.0383H19.4391Z" stroke="#616161" stroke-width="1.5" stroke-linecap="round" stroke-linejoin="round"/>
</svg>
