<svg width="38" height="39" viewBox="0 0 38 39" fill="none" xmlns="http://www.w3.org/2000/svg">
<rect width="38" height="38" transform="translate(0 0.5)" fill="#FDF8EE"/>
<path d="M32.4583 18.3915V11.6465C32.4583 5.26567 30.97 3.6665 24.985 3.6665H13.015C7.02996 3.6665 5.54163 5.26567 5.54163 11.6465V29.4748C5.54163 33.6865 7.85329 34.684 10.6558 31.6757L10.6716 31.6598C11.97 30.2823 13.9491 30.3932 15.0733 31.8973L16.6725 34.0348M12.6666 11.5832H25.3333M14.25 17.9165H23.75" stroke="#56AD01" stroke-width="2.375" stroke-linecap="round" stroke-linejoin="round"/>
<path d="M28.8341 23.8858L23.2291 29.4908C23.0075 29.7125 22.8016 30.1241 22.7541 30.425L22.4533 32.5625C22.3425 33.3383 22.8808 33.8766 23.6566 33.7658L25.7941 33.465C26.095 33.4175 26.5225 33.2116 26.7283 32.99L32.3333 27.385C33.2991 26.4191 33.7583 25.295 32.3333 23.87C30.9241 22.4608 29.8 22.92 28.8341 23.8858Z" stroke="#56AD01" stroke-width="2.375" stroke-miterlimit="10" stroke-linecap="round" stroke-linejoin="round"/>
<path d="M28.025 24.6934C28.5 26.4034 29.83 27.7334 31.54 28.2084" stroke="#56AD01" stroke-width="2.375" stroke-miterlimit="10" stroke-linecap="round" stroke-linejoin="round"/>
</svg>
