<svg width="25" height="25" viewBox="0 0 25 25" fill="none" xmlns="http://www.w3.org/2000/svg">
<path d="M11.2381 21.25C5.85807 21.25 1.48807 16.88 1.48807 11.5C1.48807 6.12 5.85807 1.75 11.2381 1.75C16.6181 1.75 20.9881 6.12 20.9881 11.5C20.9881 16.88 16.6181 21.25 11.2381 21.25ZM11.2381 3.25C6.68807 3.25 2.98807 6.95 2.98807 11.5C2.98807 16.05 6.68807 19.75 11.2381 19.75C15.7881 19.75 19.4881 16.05 19.4881 11.5C19.4881 6.95 15.7881 3.25 11.2381 3.25Z" fill="#616161"/>
<path d="M20.3981 23.29C20.3181 23.29 20.2381 23.28 20.1681 23.27C19.6981 23.21 18.8481 22.89 18.3681 21.46C18.1181 20.71 18.2081 19.96 18.6181 19.39C19.0281 18.82 19.7181 18.5 20.5081 18.5C21.5281 18.5 22.3281 18.89 22.6881 19.58C23.0481 20.27 22.9481 21.15 22.3781 22C21.6681 23.07 20.8981 23.29 20.3981 23.29ZM19.7981 20.99C19.9681 21.51 20.2081 21.77 20.3681 21.79C20.5281 21.81 20.8281 21.62 21.1381 21.17C21.4281 20.74 21.4481 20.43 21.3781 20.29C21.3081 20.15 21.0281 20 20.5081 20C20.1981 20 19.9681 20.1 19.8381 20.27C19.7181 20.44 19.6981 20.7 19.7981 20.99Z" fill="#616161"/>
</svg>
