<svg width="27" height="34" viewBox="0 0 27 34" fill="none" xmlns="http://www.w3.org/2000/svg">
<path fill-rule="evenodd" clip-rule="evenodd" d="M6.6 21.885L4.54 22.517C2.738 23.071 1.5 24.802 1.5 26.768V31.432C1.5 32.298 2.17 33 2.998 33H24.003C24.83 33 25.5 32.298 25.5 31.432V26.768C25.5 24.802 24.262 23.071 22.46 22.518L20.515 21.919" fill="#56AD01"/>
<path d="M6.6 21.885L4.54 22.517C2.738 23.071 1.5 24.802 1.5 26.768V31.432C1.5 32.298 2.17 33 2.998 33H24.003C24.83 33 25.5 32.298 25.5 31.432V26.768C25.5 24.802 24.262 23.071 22.46 22.518L20.515 21.919" stroke="black" stroke-linecap="round" stroke-linejoin="round"/>
<path fill-rule="evenodd" clip-rule="evenodd" d="M3.02185 10.45L2.39885 14.279C2.33985 14.64 2.60585 14.97 2.95585 14.97H5.04385C5.39385 14.97 5.65985 14.64 5.60185 14.279L4.97785 10.449" fill="#FCE5E5"/>
<path d="M3.02185 10.45L2.39885 14.279C2.33985 14.64 2.60585 14.97 2.95585 14.97H5.04385C5.39385 14.97 5.65985 14.64 5.60185 14.279L4.97785 10.449" stroke="black" stroke-linecap="round" stroke-linejoin="round"/>
<path fill-rule="evenodd" clip-rule="evenodd" d="M7.59424 8.69501V11.681H19.4022V8.69501H7.59424Z" fill="black" stroke="black" stroke-linecap="round" stroke-linejoin="round"/>
<path fill-rule="evenodd" clip-rule="evenodd" d="M16.3338 19.541C16.3298 19.411 16.4288 20.419 15.8518 21.884C15.8518 21.884 14.7348 22.097 13.4998 22.097C12.2648 22.097 11.1478 21.837 11.1478 21.837C11.1478 21.837 10.7808 20.723 10.7808 19.541V17.941L16.3338 17.525C16.3338 17.525 16.3378 19.672 16.3338 19.541Z" fill="#FACCCC" stroke="black" stroke-linecap="round" stroke-linejoin="round"/>
<path fill-rule="evenodd" clip-rule="evenodd" d="M9.61414 8.664V10.111C9.61414 10.696 9.16114 11.171 8.60214 11.171H7.59814V12.903C7.59814 13.346 7.94014 13.704 8.36314 13.704C8.49714 13.704 8.60514 13.814 8.61314 13.954C8.77514 16.633 10.9011 18.754 13.5011 18.754C16.1011 18.754 18.2271 16.633 18.3891 13.954C18.3909 13.8883 18.4178 13.8257 18.4643 13.7792C18.5108 13.7327 18.5734 13.7058 18.6391 13.704C19.0621 13.704 19.4041 13.346 19.4041 12.903V11.17H18.4001C17.8421 11.17 17.3891 10.695 17.3891 10.11V8.677" fill="#FACCCC"/>
<path d="M9.61414 8.664V10.111C9.61414 10.696 9.16114 11.171 8.60214 11.171H7.59814V12.903C7.59814 13.346 7.94014 13.704 8.36314 13.704C8.49714 13.704 8.60514 13.814 8.61314 13.954C8.77514 16.633 10.9011 18.754 13.5011 18.754C16.1011 18.754 18.2271 16.633 18.3891 13.954C18.3909 13.8883 18.4178 13.8257 18.4643 13.7792C18.5108 13.7327 18.5734 13.7058 18.6391 13.704C19.0621 13.704 19.4041 13.346 19.4041 12.903V11.17H18.4001C17.8421 11.17 17.3891 10.695 17.3891 10.11V8.677" stroke="black" stroke-linecap="round" stroke-linejoin="round"/>
<path fill-rule="evenodd" clip-rule="evenodd" d="M19.6978 5.78C20.2968 5.672 21.3778 5.48 22.9398 5.201C23.4798 5.105 23.5328 4.314 23.0108 4.141L13.6568 1.026C13.5539 0.991618 13.4427 0.991618 13.3398 1.026L3.98482 4.14C3.46282 4.313 3.51582 5.104 4.05482 5.2L7.34882 5.787" fill="black"/>
<path d="M19.6978 5.78C20.2968 5.672 21.3778 5.48 22.9398 5.201C23.4798 5.105 23.5328 4.314 23.0108 4.141L13.6568 1.026C13.5539 0.991618 13.4427 0.991618 13.3398 1.026L3.98482 4.14C3.46282 4.313 3.51582 5.104 4.05482 5.2L7.34882 5.787" stroke="black" stroke-linecap="round" stroke-linejoin="round"/>
<path fill-rule="evenodd" clip-rule="evenodd" d="M19.3279 8.655H7.66795C7.54505 8.65212 7.42833 8.60058 7.34339 8.51171C7.25846 8.42284 7.21227 8.3039 7.21495 8.181V5.765L12.3929 5.095C13.1259 5.00007 13.868 5.00007 14.6009 5.095L19.7809 5.765V8.181C19.7836 8.3039 19.7374 8.42284 19.6525 8.51171C19.5676 8.60058 19.4508 8.65212 19.3279 8.655ZM4.97995 10.45H3.02295V9.105C3.02295 8.819 3.24495 8.588 3.51795 8.588H4.48595C4.75895 8.588 4.97995 8.819 4.97995 9.105V10.45Z" fill="black" stroke="black" stroke-linecap="round" stroke-linejoin="round"/>
<path fill-rule="evenodd" clip-rule="evenodd" d="M16.3501 18.998C16.3501 20.874 15.7401 22.708 14.7631 24.281L13.5001 26.313L20.5471 21.929L16.3501 18.998ZM10.7401 18.998C10.7401 20.874 11.2601 22.708 12.2371 24.281L13.5001 26.313L6.45312 21.93L10.7401 18.999V18.998Z" fill="#FCE5E5"/>
<path d="M13.5001 26.313L14.7631 24.281C15.7401 22.708 16.3501 20.874 16.3501 18.998L20.5471 21.929L13.5001 26.313ZM13.5001 26.313L12.2371 24.281C11.2601 22.708 10.7401 20.874 10.7401 18.998V18.999L6.45312 21.93L13.5001 26.313Z" stroke="black" stroke-linecap="round" stroke-linejoin="round"/>
<path fill-rule="evenodd" clip-rule="evenodd" d="M15.8529 21.838C15.1279 22.005 14.3339 22.098 13.5009 22.098C12.7093 22.1002 11.92 22.0129 11.1479 21.838C11.3991 22.6976 11.7658 23.5191 12.2379 24.28L13.4999 26.314L14.7629 24.282C15.2348 23.5207 15.6012 22.6989 15.8519 21.839L15.8529 21.838Z" fill="white" stroke="black" stroke-linecap="round" stroke-linejoin="round"/>
<path d="M4.03223 5.203V8.593M21.4972 33V30.049M5.43923 33V30.049M10.7802 17.941V19.863" stroke="black" stroke-linecap="round" stroke-linejoin="round"/>
</svg>
